<svg width="107" height="48" viewBox="0 0 107 48" fill="none" xmlns="http://www.w3.org/2000/svg">
<path d="M43.1644 36.5248H89.9162L84.0301 42.2884C81.2996 44.9621 77.6301 46.4595 73.8085 46.4595H51.0957C45.8769 46.4595 42.0085 41.614 43.1644 36.5248ZM43.1644 36.5248H63.2611M51.4271 11.3957L56.608 5.97568C59.3644 3.09207 63.18 1.46094 67.1691 1.46094H103L96.3809 7.54345C93.6849 10.0209 90.1569 11.3957 86.4955 11.3957H51.4271ZM51.4271 11.3957H74.5108" stroke="white" stroke-width="2.92199"/>
<path d="M39.1162 15.7363C39.4547 22.206 40.5189 25.0179 45.3224 29.4778" stroke="white" stroke-width="2.60653"/>
<circle cx="48.7645" cy="24.109" r="12.4632" stroke="white" stroke-width="2.60653"/>
<path d="M48.8761 36.5022L15.5654 36.5022" stroke="white" stroke-width="2.60653"/>
<path d="M48.8761 11.6653H45.0251H15.5654" stroke="white" stroke-width="2.60653"/>
<path d="M46.4241 11.1685C45.1198 17.4905 45.7657 20.2286 48.6267 24.1089M48.6267 24.1089C54.9589 23.5245 57.6188 24.6068 61.0165 28.6518M48.6267 24.1089C46.5953 29.3487 44.4262 31.184 38.8525 32.6441" stroke="white" stroke-width="2.60653"/>
<path d="M55.1181 23.8943C53.8482 30.4678 51.6831 32.9919 46.3076 36.2841" stroke="white" stroke-width="2.60653"/>
<path d="M45.8738 17.9137C52.5085 16.2926 55.5186 17.1223 60.9484 20.873" stroke="white" stroke-width="2.60653"/>
<path d="M28.3433 19.5708H0" stroke="white" stroke-width="2.60653"/>
<path d="M28.3433 28.0447H0" stroke="white" stroke-width="2.60653"/>
</svg>
